# xmcd
#
# Track frame offsets: 
#        150
#        13521
#        23936
#        34126
#        44566
#        57423
#        67360
#        79655
#        91054
#        106071
#        119329
#        129799
#        141182
#        151330
#        164092
#        174668
#        186525
#        196580
#        207461
#        220770
#        232907
#        242592
#        252089
#        262002
#
# Disc length: 3629 seconds
#
# Revision: 1
# Processed by: cddbd v1.5.2PL0 Copyright (c) Steve Scherf et al.
# Submitted via: ExactAudioCopy v0.99pb4
#
DISCID=540e2b18
DTITLE=Little Willie John - The Early King Sessions
DYEAR=2002
DGENRE=Soul
TTITLE0=All Around The World
TTITLE1=Don't Leave Me Dear
TTITLE2=Home At Last
TTITLE3=Need Your Love So Bad
TTITLE4=I'm Sticking With You Baby
TTITLE5=Are You Ever Coming Back
TTITLE6=Fever
TTITLE7=Letter From my Darling
TTITLE8=My Nerves
TTITLE9=Do Something For Me
TTITLE10=I've Been Around
TTITLE11=Suffering With The Blues
TTITLE12=A Little Bit Of Loving
TTITLE13=Will The Sun Shine Tomorrow
TTITLE14=You Got To Get Up Early In The Morning 
TTITLE15=Love, Life And Money
TTITLE16=Look What You've Done To Me
TTITLE17=Ive Got to Go Cry
TTITLE18=Young Girl
TTITLE19=If I Thought You Needed Me
TTITLE20=Uh Uh Baby
TTITLE21=Dinner Date
TTITLE22=Person To Person
TTITLE23=Until You Do
EXTD=
EXTT0=
EXTT1=
EXTT2=
EXTT3=
EXTT4=
EXTT5=
EXTT6=
EXTT7=
EXTT8=
EXTT9=
EXTT10=
EXTT11=
EXTT12=
EXTT13=
EXTT14=
EXTT15=
EXTT16=
EXTT17=
EXTT18=
EXTT19=
EXTT20=
EXTT21=
EXTT22=
EXTT23=
PLAYORDER=
